<svg xmlns="http://www.w3.org/2000/svg" id="Layer_2" width="800" height="800" fill="currentColor" data-name="Layer 2" viewBox="0 0 35 35"><path d="M12.72,26.43H9.18a8.93,8.93,0,0,1,0-17.86h3.54a1.25,1.25,0,0,1,0,2.5H9.18a6.43,6.43,0,0,0,0,12.86h3.54a6.44,6.44,0,0,0,6.43-6.43,1.25,1.25,0,0,1,2.5,0A8.94,8.94,0,0,1,12.72,26.43Z"/><path d="M25.82,26.43H22.28a1.25,1.25,0,0,1,0-2.5h3.54a6.43,6.43,0,0,0,0-12.86H22.28a6.44,6.44,0,0,0-6.43,6.43,1.25,1.25,0,0,1-2.5,0,8.94,8.94,0,0,1,8.93-8.93h3.54a8.93,8.93,0,0,1,0,17.86Z"/></svg>